<svg xmlns="http://www.w3.org/2000/svg" viewBox="0 0 512 512"><defs><radialGradient id="bg" cx="50%" cy="30%" r="80%"><stop offset="0" stop-color="#2b231b"/><stop offset="1" stop-color="#0f0e0c"/></radialGradient></defs><rect width="512" height="512" rx="116" fill="url(#bg)"/><g transform="translate(256 292) scale(1)"><path d="M-129.90 75.00A150 150 0 0 1 -107.60 -104.51" stroke="#57d18c" stroke-width="40" fill="none"/><path d="M-99.27 -112.45A150 150 0 0 1 -34.02 -146.09" stroke="#c4dd4f" stroke-width="40" fill="none"/><path d="M-22.71 -148.27A150 150 0 0 1 50.36 -141.29" stroke="#ffc23d" stroke-width="40" fill="none"/><path d="M61.05 -137.01A150 150 0 0 1 118.76 -91.63" stroke="#ff7a1a" stroke-width="40" fill="none"/><path d="M125.44 -82.25A150 150 0 0 1 129.90 75.00" stroke="#ff3d3d" stroke-width="40" fill="none"/><line x1="0" y1="0" x2="103.73" y2="-137.20" stroke="#f7f0e5" stroke-width="15" stroke-linecap="round"/><circle r="26" fill="#ff7a1a"/><circle r="9" fill="#0f0e0c"/></g></svg>